<?xml version="1.0" encoding="UTF-8"?>
<svg id="Layer_1" data-name="Layer 1" xmlns="http://www.w3.org/2000/svg" viewBox="0 0 512 512">
  <defs>
    <style>
      .cls-1 {
        fill: #0081ff;
      }

      .cls-2 {
        fill: none;
        stroke: #eee;
        stroke-miterlimit: 10;
        stroke-width: 40px;
      }

      .cls-3 {
        fill: #0045ff;
      }

      .cls-4 {
        fill: #0059ff;
      }
    </style>
  </defs>
  <circle class="cls-3" cx="256" cy="256" r="201.87"/>
  <path class="cls-4" d="M256,256l15.88,201.25c-5.28.42-10.58.63-15.88.63-110.74,0-201.87-91.13-201.87-201.87,0-110.74,91.13-201.87,201.87-201.87s201.87,91.13,201.87,201.87c0,27.55-5.64,54.82-16.57,80.11l-185.3-80.11Z"/>
  <path class="cls-1" d="M256,256l-171.58,106.36c-19.8-31.94-30.29-68.78-30.29-106.36,0-110.74,91.13-201.87,201.87-201.87,51.66,0,101.39,19.83,138.88,55.36l-138.88,146.51Z"/>
  <path class="cls-2" d="M260.48,256l82.51,122.38c-24.37,16.43-53.11,25.21-82.51,25.21-80.97,0-147.59-66.63-147.59-147.59s66.63-147.59,147.59-147.59c40.1,0,78.51,16.34,106.32,45.22l-106.32,102.37Z"/>
</svg>